/* XPM */
static char *_0c1a8d2cde248469e24fe8c75c10851wpEbAZaXK2tqgPd0[] = {
/* columns rows colors chars-per-pixel */
"32 32 244 2 ",
"   c None",
".  c black",
"X  c #010101",
"o  c #020202",
"O  c gray1",
"+  c #040404",
"@  c gray2",
"#  c #060606",
"$  c #070707",
"%  c gray3",
"&  c gray4",
"*  c #0B0B0B",
"=  c #0C0C0C",
"-  c #0E0E0E",
";  c gray6",
":  c #0E0A16",
">  c #101010",
",  c #111111",
"<  c gray7",
"1  c #131313",
"2  c gray8",
"3  c #151515",
"4  c #161616",
"5  c gray9",
"6  c #15101F",
"7  c #181818",
"8  c #191919",
"9  c gray10",
"0  c #1B1B1B",
"q  c #1D1D1D",
"w  c #1E1E1E",
"e  c gray12",
"r  c #22130E",
"t  c #241516",
"y  c #3F1814",
"u  c #3F1B18",
"i  c #062315",
"p  c #062A1B",
"a  c gray13",
"s  c #222222",
"d  c #232323",
"f  c gray14",
"g  c #252525",
"h  c gray15",
"j  c #272727",
"k  c #282828",
"l  c gray16",
"z  c #2A2A2A",
"x  c gray17",
"c  c #2C2C2C",
"v  c #2D2D2D",
"b  c gray18",
"n  c #2F2F2F",
"m  c #2C3522",
"M  c #323D29",
"N  c gray19",
"B  c #313131",
"V  c gray20",
"C  c #353535",
"Z  c gray21",
"A  c #343F32",
"S  c #3A3F33",
"D  c gray22",
"F  c #393939",
"G  c #3A3A3A",
"H  c gray23",
"J  c #3C3C3C",
"K  c gray24",
"L  c #3E3E3E",
"P  c #3F3F3F",
"I  c #433E1E",
"U  c #434323",
"Y  c #414141",
"T  c gray26",
"R  c #434343",
"E  c #444444",
"W  c gray27",
"Q  c #464646",
"!  c gray28",
"~  c #484848",
"^  c #494949",
"/  c gray29",
"(  c #4B4B4B",
")  c #4C4C4C",
"_  c gray30",
"`  c #4E4E4E",
"'  c gray31",
"]  c #564740",
"[  c #505050",
"{  c #515151",
"}  c gray32",
"|  c #535353",
" . c #555453",
".. c gray33",
"X. c #555555",
"o. c #565656",
"O. c gray34",
"+. c #585858",
"@. c gray35",
"#. c #5A5A5A",
"$. c #5B5B5B",
"%. c gray36",
"&. c #5D5D5D",
"*. c #5F5E5D",
"=. c gray37",
"-. c #5F5F5F",
";. c #665658",
":. c #606060",
">. c gray38",
",. c gray39",
"<. c #646464",
"1. c #656565",
"2. c gray40",
"3. c #676767",
"4. c DimGray",
"5. c #6B6A68",
"6. c #6A696B",
"7. c #6A6A6A",
"8. c gray42",
"9. c #6C6C6C",
"0. c #6D6D6D",
"q. c gray43",
"w. c #6F6F6F",
"e. c gray44",
"r. c #717171",
"t. c #727272",
"y. c gray45",
"u. c #747474",
"i. c gray46",
"p. c #767676",
"a. c #777777",
"s. c #797875",
"d. c gray47",
"f. c #797979",
"g. c gray48",
"h. c #7B7B7B",
"j. c #7C7C7C",
"k. c #7E7E7E",
"l. c gray50",
"z. c #808080",
"x. c #818181",
"c. c gray51",
"v. c #838383",
"b. c #848484",
"n. c gray52",
"m. c #868686",
"M. c gray53",
"N. c #888888",
"B. c #898989",
"V. c gray54",
"C. c #8B8B8B",
"Z. c gray55",
"A. c #8D8D8D",
"S. c #8E8E8E",
"D. c gray56",
"F. c #909090",
"G. c gray57",
"H. c #929292",
"J. c #939393",
"K. c gray58",
"L. c gray59",
"P. c #979797",
"I. c #989898",
"U. c gray60",
"Y. c #9A9A9A",
"T. c #9B9B9B",
"R. c gray61",
"E. c gray62",
"W. c #9F9F9F",
"Q. c #A2A2A2",
"!. c gray64",
"~. c #A4A4A4",
"^. c #A5A5A5",
"/. c gray65",
"(. c #A7A7A7",
"). c gray66",
"_. c #A9A9A9",
"`. c gray67",
"'. c #ACACAC",
"]. c #AEAEAE",
"[. c #AFAFAF",
"{. c gray69",
"}. c #B1B1B1",
"|. c #B2B2B2",
" X c gray70",
".X c #B4B4B4",
"XX c gray71",
"oX c #B6B6B6",
"OX c #B7B7B7",
"+X c gray72",
"@X c #B9B9B9",
"#X c gray73",
"$X c #BBBBBB",
"%X c #BCBCBC",
"&X c gray74",
"*X c gray",
"=X c gray75",
"-X c #C0C0C0",
";X c #C1C1C1",
":X c gray76",
">X c #C3C3C3",
",X c gray77",
"<X c #C5C5C5",
"1X c #C6C6C6",
"2X c gray78",
"3X c #C8C8C8",
"4X c gray79",
"5X c #CACACA",
"6X c #CBCBCB",
"7X c gray80",
"8X c #CDCDCD",
"9X c #CECECE",
"0X c gray81",
"qX c #D0D0D0",
"wX c gray82",
"eX c #D2D2D2",
"rX c LightGray",
"tX c gray83",
"yX c #D5D5D5",
"uX c gray84",
"iX c #D7D7D7",
"pX c #D8D8D8",
"aX c gray85",
"sX c #DADADA",
"dX c gray86",
"fX c gainsboro",
"gX c gray87",
"hX c #DFDFDF",
"jX c #E1E1E1",
"kX c #E2E2E2",
"lX c gray89",
"zX c gray90",
"xX c #E9E9E9",
"cX c #EAEAEA",
"vX c #ECECEC",
"bX c #EEEEEE",
"nX c #EFEFEF",
"mX c gray95",
"MX c #F4F4F4",
"NX c gray96",
"BX c #F8F8F8",
"VX c gray98",
"CX c #FBFBFB",
"ZX c gray99",
/* pixels */
"                                                                ",
"  XX#X#X#X%X-X%X%XOX|.).I.z.9.O.) ) #.M.). X%X-X,X2X,X,X-X-X-X  ",
"  XX#X%X-X-X-X%XOX{.W.5.N e 0 3 4 0 4 e E N.}.$X>X,X3X3X,X,X>X  ",
"  #X%X%X%X-X%X%X|.D.) q 3 : & & - & & - : j a.XX-X2X3X3X2X,X>X  ",
"  %X%X-X,X,X-XXXP.@.E ) R ( ( T D B z 8 & - F C.%X,X3X3X3X3X,X  ",
"  %X-X-X,X-X%XXXC.C.XX%X).I.x.1.) ~ ..L 0 - 6 6.#X,X7X0X7X3X3X  ",
"  -X-X,X,X,X%X].].3XdXeX,X].M.-.) ..-.) V 8 , ..(.-X3XqX0X6X6X  ",
"  -X,X,X,X-X#X|.tXBXmXgX0X].z...L ( -.#.L d 4 U K.,X0XqXeX0X6X  ",
"  -X,X3X,X,X%X-XzXZXmXdX0X).f.) D D ..,.T d q D N.-X7XeXrXqX0X  ",
"  ,X,X3X3X,X#X3XvXNXxXgX3X{.A.3.) } ,.1.) v q g p.-X0XrXtXeXeX  ",
"  ,X,X3X3X,X%X,XxXBXvXkX0X=X'.z.-.-.f.f.-.D 8 , V B.3XeXtXeXeX  ",
"  ,X3X3X0X,X(.M.-XNXzX3X|.L.-.D D T ) ,.1.P q z ..R.3XeXtXtXtX  ",
"  3X3X3X0X).) P t.,.+.-.} Z d v D B g z g B T P ) B.,XeXtXtXtX  ",
"  ,X3X3X0X|.;.u m i X X 8 z t y M p X # v } -.,.-.B.-XeXdXtXtX  ",
"  3X3X0X0X3XR.] U A : < ,.x.D r I S 6 q ( ) E E ..B.-XtXtXdXtX  ",
"  3X3X0X0X3X,XR.s.5.5.R.-X(.A.p.-. .T T E T D ) p.!.3XeXdXtXdX  ",
"  2X3X0XqX6X,X>XkXCXCXZXdXW.c.!.,X!.5.E P Z N D t. X6XtXdXiXtX  ",
"  2X3X7XqX0X2X%XdXMXcXvX,X(.D.f.I.Z.-.E J B z v 0..X7XtXdXtXtX  ",
"  2X3X7X0X7X3X%X6X,X{.!.t.} ( ,.f.5.@.T Z N h g +.!.,XeXiXtXiX  ",
"  2X2X3X0XqX6X-X-XOX2X6Xd.~ | 1.0.,.} D v z e e ( F.%X3XeXeXrX  ",
"  ,X3X6X7XqX6X,X=X2X>X'.J.g.| V N E ) Z z s 3 e J -.J.$X,X6X0X  ",
"  ,X2X3X6X0X0X,X$X$XM.w.c.-.E R ( ) P v h 8 3 D [ x D B.XX%X-X  ",
"  >X,X2X7XqXqX3X-XOX{.>X$Xz.+.) +...D f 0 3 x u.#.= % s e.). X  ",
"  >X,X2X3X6X7X0X,X#X.X-X].g.,.#.+.E v 0 < h z.M.v % $ + O z 5.  ",
"  -X>X,X3X3X0X3X,X$X'.+XtX3XW.g.@.Z q 3 z B.-X1.* $ + X X X X   ",
"  =X-X,X,X2X,X>X=XXX(.I.Z.y...( P v q ) (.eXR.B + # # X X X X   ",
"  %X%X-X-X=X=X#X{.~.M.9.w.R.$Xz.g 8 -.XXdX%X-.& O O X X X X X   ",
"  $X%X%X$XXX|.!.M.-.+.<.p.F.qXqXM.F.,XtXeXx.q X X X X X X X X   ",
"  #XOXXX|.(.L.5.' } -.0.t.B.,X{.-.j.0XdX|.E X X X X X X X X X   ",
"  XX X].!.g..._ ' @.5.c.9.b.6XR...x.eXkXA.q X X X X X X X X X   ",
"  |.].(.z...' ' | -.p.B.,.A.0X5.x.xXBXeX@.# X X X X X X X X X   ",
"                                                                "
};
