/* XPM */
static char *_741b7b665064c7683200432b3f07d08UouMjLdp8bjpcaOu[] = {
/* columns rows colors chars-per-pixel */
"16 16 127 2 ",
"   c None",
".  c black",
"X  c #020202",
"o  c gray1",
"O  c gray3",
"+  c #0B0B0B",
"@  c #101010",
"#  c gray9",
"$  c #181818",
"%  c #191919",
"&  c gray10",
"*  c #222222",
"=  c gray15",
"-  c #272727",
";  c #2C2521",
":  c gray16",
">  c gray17",
",  c #2C2C2C",
"<  c #2D2D2D",
"1  c gray18",
"2  c #2F2F2F",
"3  c #352E2B",
"4  c gray19",
"5  c gray20",
"6  c #363230",
"7  c #353535",
"8  c gray21",
"9  c #373737",
"0  c #32373A",
"q  c gray23",
"w  c #3C3C3C",
"e  c gray24",
"r  c #3F3F3F",
"t  c #414141",
"y  c #444444",
"u  c #4F4C42",
"i  c #484848",
"p  c #494949",
"a  c gray29",
"s  c #4B4B4B",
"d  c gray30",
"f  c gray31",
"g  c #505050",
"h  c gray32",
"j  c #535353",
"k  c #555555",
"l  c #585858",
"z  c #5A5A5A",
"x  c #5D5D5D",
"c  c #63635B",
"v  c #606060",
"b  c #646464",
"n  c #656565",
"m  c #676767",
"M  c #6D6966",
"N  c #626C6E",
"B  c #6A6A6A",
"V  c gray42",
"C  c gray43",
"Z  c #786F62",
"A  c #717171",
"S  c #727272",
"D  c gray45",
"F  c #747474",
"G  c #767676",
"H  c gray47",
"J  c #797979",
"K  c #808080",
"L  c #818181",
"P  c gray52",
"I  c #888888",
"U  c #8D8D8D",
"Y  c #8E8E8E",
"T  c #909090",
"R  c gray57",
"E  c #959595",
"W  c #989898",
"Q  c #9A9A9A",
"!  c #9B9B9B",
"~  c #9D9D9D",
"^  c gray62",
"/  c #A79E93",
"(  c #A2A2A2",
")  c gray64",
"_  c gray65",
"`  c gray66",
"'  c #AEAEAE",
"]  c #B1B1B1",
"[  c gray70",
"{  c #B4B4B4",
"}  c gray71",
"|  c #B7B7B7",
" . c gray72",
".. c #B9B9B9",
"X. c gray73",
"o. c #BBBBBB",
"O. c #BCBCBC",
"+. c gray74",
"@. c gray",
"#. c gray75",
"$. c #C0C0C0",
"%. c #C1C1C1",
"&. c gray76",
"*. c #C3C3C3",
"=. c gray77",
"-. c #C5C5C5",
";. c #C6C6C6",
":. c gray78",
">. c #C8C8C8",
",. c gray79",
"<. c #CACACA",
"1. c #CBCBCB",
"2. c gray80",
"3. c #CDCDCD",
"4. c gray81",
"5. c #D0D0D0",
"6. c gray82",
"7. c #D2D2D2",
"8. c gray83",
"9. c #D5D5D5",
"0. c gray84",
"q. c #D7D7D7",
"w. c #DADADA",
"e. c #E1E1E1",
"r. c #E2E2E2",
"t. c #E4E4E4",
"y. c #F1F1F1",
/* pixels */
"                                ",
"  o.+.+._ m = @ @ & h ( =.=.=.  ",
"  +.&.o.R H H x i < & m +.2.<.  ",
"  &.&.o.<.w.} S h f < f ` 2.2.  ",
"  =.=.<.r.t.o.S h z t y Q 2.7.  ",
"  =.=.+.0.r.} H k v i = G 2.0.  ",
"  <.} M 6 4 < 3 ; # 7 h P =.0.  ",
"  2.<./ c N L Z u 0 w h Y <.0.  ",
"  <.2.2.r.y.&.^ R x q t R 7.0.  ",
"  <.2.=.&.} G z m i < < H =.7.  ",
"  <.2.<.+.( S i t q * 4 h P &.  ",
"  =.<.2.+.+.Q v i < : i 4 & k   ",
"  &.=.<.+.' Q S w 7 J m + o o   ",
"  +.+.] R C Y E H ` ( 7 o o o   ",
"  ] ^ S z B R Y Y } B O o o o   ",
"                                "
};
