/* XPM */
static char *b347e1f9ed17483da4ea11273eb759befpHEsw4KkTphdnOa[] = {
/* columns rows colors chars-per-pixel */
"64 64 144 2 ",
"   c None",
".  c #010101",
"X  c #080706",
"o  c #09070D",
"O  c #0C0C0C",
"+  c #041709",
"@  c #051B0A",
"#  c #041B1A",
"$  c #141414",
"%  c #1B1B1B",
"&  c #3C0D12",
"*  c #1E2413",
"=  c #142C13",
"-  c #0A3B16",
";  c #201632",
":  c #281C3F",
">  c #232323",
",  c #2B2B2B",
"<  c #333333",
"1  c #3C3C3C",
"2  c #531117",
"3  c #571218",
"4  c #62151C",
"5  c #403406",
"6  c #523F04",
"7  c #4C2316",
"8  c #473626",
"9  c #4F3E21",
"0  c #593B21",
"q  c #7C2523",
"w  c #0B4119",
"e  c #195C39",
"r  c #215F33",
"t  c #55421A",
"y  c #565334",
"u  c #4C603D",
"i  c #163641",
"p  c #372754",
"a  c #0C5143",
"s  c #0F5840",
"d  c #154951",
"f  c #1F7268",
"g  c #226D68",
"h  c #434343",
"j  c #4C4C4C",
"k  c #535353",
"l  c #5B5B5B",
"z  c #646464",
"x  c #6C6C6C",
"c  c #737373",
"v  c #7C7C7C",
"b  c #86451F",
"n  c #846609",
"m  c #866B09",
"M  c #884221",
"N  c #838383",
"B  c #8B8B8B",
"V  c #949494",
"C  c #9C9C9C",
"Z  c #A6A6A6",
"A  c #A4A4A4",
"S  c gray66",
"D  c #A9A9A9",
"F  c #AAAAAA",
"G  c gray67",
"H  c gray68",
"J  c #ACACAC",
"K  c #AEAEAE",
"L  c #AFAFAF",
"P  c #ACACAC",
"I  c gray69",
"U  c #B1B1B1",
"Y  c #B2B2B2",
"T  c gray70",
"R  c #B4B4B4",
"E  c gray71",
"W  c #B6B6B6",
"Q  c #B7B7B7",
"!  c #B4B4B4",
"~  c gray72",
"^  c #B9B9B9",
"/  c gray73",
"(  c #BBBBBB",
")  c #BCBCBC",
"_  c gray74",
"`  c gray",
"'  c gray75",
"]  c #BCBCBC",
"[  c #C0C0C0",
"{  c #C1C1C1",
"}  c gray76",
"|  c #C3C3C3",
" . c gray77",
".. c #C5C5C5",
"X. c #C6C6C6",
"o. c gray78",
"O. c #C4C4C4",
"+. c #C8C8C8",
"@. c gray79",
"#. c #CACACA",
"$. c #CBCBCB",
"%. c gray80",
"&. c #CDCDCD",
"*. c #CECECE",
"=. c gray81",
"-. c #CCCCCC",
";. c #D0D0D0",
":. c gray82",
">. c #D2D2D2",
",. c LightGray",
"<. c gray83",
"1. c #D5D5D5",
"2. c gray84",
"3. c #D7D7D7",
"4. c #D4D4D4",
"5. c #D8D8D8",
"6. c #DADADA",
"7. c gainsboro",
"8. c #DDDDDD",
"9. c #DFDFDF",
"0. c #DADADA",
"q. c #E2E2E2",
"w. c gray88",
"e. c #E5E5E5",
"r. c #E6E6E6",
"t. c #E3E3E3",
"y. c gray91",
"u. c gray92",
"i. c #ECECEC",
"p. c #EBEBEB",
"a. c #F1F1F1",
"s. c gray95",
"d. c #F4F4F4",
"f. c gray97",
"g. c #F6F6F6",
"h. c #F4F4F4",
"j. c #F8F8F8",
"k. c #F9F9F9",
"l. c #FBFBFB",
"z. c gray99",
"x. c #FDFDFD",
"c. c #FEFEFE",
"v. c white",
"b. c gray99",
/* pixels */
"                                                                                                                                ",
"                                                                                                                                ",
"      R R / R / / / ) ) } ) } ) [ [ ] ^ R E L L Z A A C V B B N c x z c B C Z Z P I T Q ) [ [ | | | o.o.| | o.| } [ [ [ `       ",
"    R R R / / / / ) ) ) ) ) ) } ) ] / R R Y D Z A V v l k j j h 1 1 1 < < h z B A F L T ^ ) [ [ | o.| o.o.o.| } } } [ [ `       ",
"    / R / / ) ) ) ) ) } } } ) ) ] / R Y L D A v k < > % > % $ $ $ % % % $ % > , k N Z L U Q ) [ | o.o.o.| o.o.}  . .} } }       ",
"    R R R / ) ) ) ) } ) } ) } ) ] R E P Z C x , $ % $ $ $ $ $ O O $ $ $ $ O $ $ % , l V K ! / ` } | o.o.o.o.o.o.o. .} } }       ",
"    / / / / ) ) ) } } } } } ) ) R Y P Z B j > % $ O O O X X X X X O O O O $ O X $ % $ y B L W ) } | o.o.@.o.o.o.o. . .} }       ",
"    / / ) ) ) ) ) } } ) } } ) / E L A v h % % $ $ % % $ $ X X o O O O O O X O O O o $ > k V U ~ ` } o.@.#.@.#.o.o.o.o.o.}       ",
"    ) ) ) ) ) ) } } } } } } / / Y S c < , , , , > % > , < < , , , , > % > > O o o O $ $ * l Z ! / } o.#.%.#.%.#.+.+.o.o. .      ",
"    / ) ) ) } ) } }  . .} ) / R L V k 1 j z c x z z z x x z l k j h 1 1 h j > $ O O $ O $ 1 N U / }  .+.#.%.%.#.+.+.o.o.o.      ",
"    ) ) ) } } } }  .} } } ) / Y P N l x C / } / A C V V B v x z l j h p k z h ; $ O O O $ % l S Q `  .+.%.%.%.%.%.#.#.+. .      ",
"    ) ) ) } } }  . . . .} ) R L D v v E +.%.+. .] Y S V V v x l j 8 r k z l j 8 > $ O $ $ $ p B R `  .+.%.%.%.=.%.#.+.+.+.      ",
"    ) ) } ) }  . . . .} ) / R L C V L *.,.<.*.%.+.[ U A V v z k j j j k c z j r , > % $ $ o , v R ( } +.%.=.;.=.=.%.#.+.+.      ",
"    ) } ) }  . . .+. .} } / R L V S 5.e.y.r.8.;.$.@.] D V v z k j j j l x z j j 8 > > $ $ $ % z T ( } +.%.=.;.=.=.=.%.#.+.      ",
"    } ) } }  .+.+. . .} ) / Y L L ,.g.j.f.i.w.2.<.$.} S B c l j h 8 h j l z z z j , % % $ $ $ l D / } +.=.;.4.;.;.=.=.%.#.      ",
"    } } } }  . . .+. .} } / Y Z O.a.c.c.c.j.y.6.;.@./ A B x k h 1 < p k l z x l h < > % $ $ $ k A / } +.%.;.;.4.;.;.;.%.%.      ",
"    } ) } }  . .@.X.X.| ' / Y Y 0.x.x.x.x.a.w.5.;.$.] A N x k h < < < p k z c x h , % % % % $ y V Q } o.%.;.2.4.;.;.=.=.%.      ",
"    } }  . . .+.O.X.X.O.' / Y ^ w.x.x.j.d.u.w.5.;.+./ A B x k h 1 < 1 8 h l z l h < > > % $ $ p B R }  .=.;.4.4.2.2.;.=.%.      ",
"    } }  . .+.+.@.@.@.O.' ^ Y ' r.x.x.d.u.e.w.6.,.@.R A B v z k y p h j l z x z l h , % % $ $ 8 N R `  .%.;.;.4.4.4.;.=.=.      ",
"    } } +. . .+.@.@.@.O.' ^ Y ' r.x.j.a.y.e.r.8.*.o.] Y Z V v z l k k l x c x z l j < > % % $ % l Z )  .%.;.4.2.4.4.4.=.=.      ",
"    }  . . .+.+.@.@.@.O.[ / Y ] w.j.j.d.u.u.u.e.2.$.[ ( ^ S V v x l l z c v v c l j p , % % X X . > N } +.=.4.2.2.4.2.;.;.      ",
"    }  . .+.+.+.#.$.@.O.[ / Y ] e.x.c.x.j.a.e.8.;. .' [ [ L B z k h k z N V N x l l u < > O X > h j N } +.=.;.4.4.2.4.4.;.      ",
"    }  . . .+.+.$.$.#.X.{ ] A v Y x.x.x.j.u.8.*.O.] R U C x h , < p r h j x v x z z l , O X ; h < z I } o.=.;.2.2.4.2.;.4.      ",
"     . .+.+.+.%.$.#.#.X.[ C h % V j.j.u.8.*.O.^ P Z C c h > > , y k h 8 r p k l z z y $ O , h 1 , l C `  .%.;.3.2.2.2.4.4.      ",
"     . .+.+.+.%.%.%.+.+.C < % x <.y.] V B C D L C N x j < , 1 k x x k j 1 1 h j j > X % < h r 1 1 j B /  .%.;.;.2.2.2.2.;.      ",
"     .+. .+.+.%.%.%.%.} z X $ > , , > $ $ % % > % % $ $ O $ $ $ $ $ $ $ $ $ $ $ o X < z z h , 1 l k v Y } %.;.2.2.2.2.2.2.      ",
"    +. .+.+.%.%.%.%.+.+.z X & 2 * - @ . . . . . . $ < , $ . 3 4 = - + . . . . . . < z z z c j h x z c D  .%.;.2.2.3.3.2.2.      ",
"     .+.+.+.%.%.;.%.%.+.C < & q 0 r s # . . . . . , k h $ . 2 q 8 e a # . . . . > k l k k z l z v z c D  .+.%.2.2.3.3.2.4.      ",
"    +. .+.+.%.%.%.;.%.%. .B , 7 M y f d o . . . > x v l 1 O . 7 b j g i X . X % h l l j h j h h z l c L  .%.;.2.2.6.2.2.2.      ",
"     .+.+.+.%.%.%.;.%.%. .} N > 5 m t p : . . $ x } Z N v h X . t n 8 p ; . $ 1 k k j j h 1 < j l k N R  .%.2.2.2.2.6.2.4.      ",
"    +. .+.+.%.%.;.;.%.%.+.} ) v > X X . . . . x y.8.A N V C k X X X X X X O < j j h h h 1 1 j z x c C ) +.%.2.2.6.2.6.2.2.      ",
"     .+.+.+.%.%.%.;.;.%.+.} ) L ] 5.*.' O.2.q.i.k.6.Z V B C L / ( W T C N l j j h h 1 1 < , h l z N Y ) +.;.;.2.6.6.2.2.2.      ",
"     .+.+.%.%.%.%.;.;.%.+.} ) R ;.g.g.g.k.c.c.c.k.8.Y V B B L +.&.+.~ C v l j r p r 8 < < , < h l V Q } #.,.<.3.6.6.5.3.<.      ",
"    +. .+.+.%.%.;.%.;.%.+. .} R %.a.c.c.c.c.c.c.g.+.V v v x v / &. .J B x k j 8 h 1 1 < , , 1 1 l C ^ } #.;.3.5.6.5.3.1.3.      ",
"     .+.+.+.%.%.%.;.;.;.+. .) R  .i.c.c.a.w.y.c.y.) B V / C l v T ( Z N z k h h h 1 < , , , , 1 k V ^ } #.,.3.5.6.6.3.3.2.      ",
"    +. .+.+.%.%.%.;.;.%.%.+.} / ) w.c.a.2.6.g.g.w.Y B L / N k l N V V c z k h 1 1 1 < , , > , < j B Q } #.*.,.5.6.3.5.3.2.      ",
"     .+.+.+.%.%.;.;.;.%.%.+.} / R 2.g.6.D ) y.6.L c l z l h j x v c N c l j h p < 1 , < , > , , 1 v E ` o.*.,.3.2.5.2.2.<.      ",
"    +. .+.+.+.%.%.;.;.;.%.+. .) R +.8.) N B A N z j < < h 1 l B N z z z l k j 8 < < < , , % % > < c I / } #.*.,.2.2.2.2.<.      ",
"     .+.+.+.+.%.;.;.;.%.%.%. .) R } %.R B R a.w.N 1 h z z k x N N c z l l j 1 < , , , , % % % > , x G Q ` o.#.*.;.2.,.;.;.      ",
"     . . .+.+.%.%.%.;.;.%.%.+.} R /  .) / 8.g.r.C l h 1 1 h k z z z l l k j 1 < , , , , % $ $ > < h v I Q ` o.@.%.;.;.2.;.      ",
"    }  . .+.+.%.%.;.;.%.;.%.+. ./ Y } %.2.r.6.Y v j h h < , < < < 1 j k l j < , , , , % $ $ $ % 8 j j N U ^ ` | +.%.%.;.%.      ",
"     . . .+.+.+.%.%.;.;.;.%.+. .) R ) %.+.L B V / }  ./ v k 1 < > % , j k j < < , , , % $ O % , k l : r B K W ] |  .+.+.-.      ",
"     . . .+.+.%.%.%.;.;.%.;.+. .} / R } R c j l z v v k 1 , , , , h j j h 1 < , , , > $ $ $ % < c x % o < N P E / ) } }  .      ",
"    }  . . .+.+.%.%.%.;.;.%.%.+.} ) Y / R v k v L C z 1 h z k h k z z j 1 < , , , > $ $ $ $ > k V l O O X , v P L R / ] }       ",
"    } }  .+.+.+.+.%.%.%.;.;.%.+. .) R Y Y A A ;.6.R V v z j j h k z z j 1 < , > % % $ O $ > j C N > o o X o $ l A D L Y R       ",
"    } }  . . .+.+.%.%.;.%.;.%.%.+.} ) Y R Y } r.2.Z v x l j h j l z l j 1 , > % % $ O O % h C L k o X o X X . O 1 N Z D L       ",
"    } }  .+. .+.+.%.%.%.%.;.%.%.+. .) / L Y /  . .V l j h j j k k k j 1 < , % % $ $ O $ h V X.N , X X O X X X . . O h B Z       ",
"    } } }  . . .+.+.+.%.%.%.%.%.+.+.) / Y D ) ;.%./ A V v c x z z l j 1 , > $ $ $ $ $ h C &.Y k O X X X X X . . . . . $ k       ",
"    ) } }  . . .+.+.+.%.%.%.%.%.+. .} / Y Z D +.w.r.8.} L C N c x l h < > % $ $ O O j A ;.+.B , . X X X X . X . . . . . .       ",
"    } ) ) }  . .+. .+.+.+.%.%.+.+. .} / Y D C L ;.6.;.) Z B v x l h < > % % % o $ l U ;.,.O.z O X X . X X . . . . . . . .       ",
"    ) } } } } }  . .+.+.+.+.+.+. .} ) R L Z C C Z / Z B v x z k h < : , > $ o , c } 5.3.,.C < o X o X X X . . . . . . . .       ",
"    ) ) ) } } }  . . . . . . .} ) / / Y D A C B v c k 1 1 1 1 1 p 8 8 > $ $ 1 V *.8.5.,.[ z O X . . X . . . . . . . . . .       ",
"    ) ) ) } } } }  . .} } } ) ) / R L D A C N z z x c B / L v j , * $ O % k A ,.8.8.,.$.B , . . X . . . . . . . . . . . .       ",
"    ) ) ) ) ) } } } ) ) ) / / R Y L Z C N x l z x c v V 2.c.8.v , $ $ * k C &.6.8.<.$.U j X . . . . . . . . . . . . . . .       ",
"    ) / ) ) ) ) ) ) ) / / Y L D D C B z k k l z x v c N 2.c.k. .l < l N G &.6.6.1.;.+.v $ X . . . X . . . . . . . . . . .       ",
"    / / ) ) ) ) / / R Y L D Z A B x k j k k l x c N x v ;.k.r.+.V z C q.6.6.5.<.:.;.Z r X . . . . . . . . . . . . . . . .       ",
"    / R / / / R R Y L D Z A C c k j k j k l z x v v l x %.a.r.I l 1 z Q y.7.0.2.4.+.x O . . . . . . . . . . . . . . . . .       ",
"    / / R / R Y Y L D Z C B l j j j j k l z x c B N h c 2.r.#.C k 1 h x $.r.7.0.2.C < . . . . . . . . . . . . . . . . . .       ",
"    / R R R Y Y D Z A V x k j j j j k l l x c N V c 1 v w.y.6.I k , < v :.r.r.q.%.x $ . . . . . . . . . . . . . . . . . .       ",
"    / R R Y L D D A N k h j j j j k k l z c N B B l 1 C g.a.( l < j V 7.a.a.u.q.S h X . . . . . . . . . . . . . . . . . .       ",
"    Y Y Y L D Z C V l 1 k j j k k k k z x v N C B j j T k.6.c , h C t.s.l.b.h.0.c $ X . . . . . . . . . . . . . . . . . .       ",
"      L L D D A C v j h j k j j k l l z c v N V v 1 l } k.4.x 1 l S a.b.x.l.f.{ k O . . . . O X . . . . . . . . . . . .         ",
"                                                                                                                                ",
"                                                                                                                                "
};
